<svg xmlns="http://www.w3.org/2000/svg" width="161" height="32" viewBox="0 0 161 40" fill="none"><path d="M46.6813 32.0561V33.0092H42.6688V9.33105H46.6813V17.3592C46.6813 17.7248 47.1094 17.9029 47.3813 17.6561C48.3906 16.7467 49.8563 16.1686 51.55 16.1686C56.45 16.1686 59.3781 19.6561 59.3781 24.7186C59.3781 29.7811 56.45 33.2686 51.4844 33.2686C49.8875 33.2686 48.3969 32.7061 47.3719 31.7467C47.1094 31.4998 46.6813 31.6936 46.6813 32.0529V32.0561ZM55.3625 24.7217C55.3625 21.6623 53.7656 19.6561 51.3438 19.6561C48.9219 19.6561 47.325 21.6623 47.325 24.7217C47.325 27.7811 48.9219 29.7873 51.3438 29.7873C53.7656 29.7873 55.3625 27.7811 55.3625 24.7217Z" fill="white"></path><path d="M68.7063 9.52832V13.8346H64.5563V9.52832H68.7063ZM64.625 16.4346H68.6688V33.0096H64.625V16.4346Z" fill="white"></path><path d="M82.1531 19.8219C79.5875 19.8219 78.5688 22.0251 78.5688 25.1813V33.0094H74.525V16.4344H78.5688V17.1688C78.5688 17.4469 78.9188 17.5625 79.0875 17.3438C79.9063 16.2813 81.0781 16.4344 82.8125 16.4344H84.7531V19.8219H82.1531Z" fill="white"></path><path d="M87.5094 24.7217C87.5094 19.6561 90.4344 16.1717 95.3375 16.1717C97.0531 16.1717 98.5031 16.7467 99.5031 17.6529C99.775 17.8967 100.203 17.7217 100.203 17.3561V9.33105H104.216V33.0092H100.203V32.0561C100.203 31.6967 99.775 31.5061 99.5125 31.7498C98.4906 32.7092 96.9969 33.2686 95.4032 33.2686C90.4375 33.2686 87.5094 29.7811 87.5094 24.7186V24.7217ZM99.5594 24.7217C99.5594 21.6623 97.9625 19.6561 95.5407 19.6561C93.1188 19.6561 91.5219 21.6623 91.5219 24.7217C91.5219 27.7811 93.1188 29.7873 95.5407 29.7873C97.9625 29.7873 99.5594 27.7811 99.5594 24.7217Z" fill="white"></path><path d="M124.675 27.4844C124.05 31.0031 120.959 33.2719 116.881 33.2719C111.453 33.2719 108.428 28.9969 108.428 24.6562C108.428 20.3156 111.125 16.1719 116.553 16.1719C121.981 16.1719 124.609 20.2156 124.609 24.1625C124.609 24.7219 124.575 25.2156 124.544 25.5437H112.791C112.528 25.5437 112.334 25.7844 112.381 26.0406C112.825 28.4187 114.478 29.9187 116.878 29.9187C118.95 29.9187 120.3 29.0625 120.725 27.4844H124.672H124.675ZM112.919 22.8781H120.091C120.35 22.8781 120.547 22.6406 120.5 22.3875C120.162 20.5344 118.762 19.1969 116.55 19.1969C114.337 19.1969 113.047 20.2156 112.516 22.3594C112.45 22.6219 112.647 22.8812 112.919 22.8812V22.8781Z" fill="white"></path><path d="M137.181 32.2186L134.616 39.7186H130.769L132.906 33.578C133.034 33.2093 133.031 32.8093 132.897 32.4405L127.053 16.4312H131.162L135.009 27.8093L138.825 16.4312H142.969L137.181 32.2186Z" fill="white"></path><path d="M160.728 27.4844C160.103 31.0031 157.013 33.2719 152.934 33.2719C147.506 33.2719 144.481 28.9969 144.481 24.6562C144.481 20.3156 147.178 16.1719 152.606 16.1719C158.034 16.1719 160.663 20.2156 160.663 24.1625C160.663 24.7219 160.628 25.2156 160.597 25.5437H148.844C148.581 25.5437 148.388 25.7844 148.434 26.0406C148.878 28.4187 150.531 29.9187 152.931 29.9187C155.003 29.9187 156.35 29.0625 156.778 27.4844H160.725H160.728ZM148.972 22.8781H156.144C156.403 22.8781 156.6 22.6406 156.553 22.3875C156.216 20.5344 154.813 19.1969 152.603 19.1969C150.394 19.1969 149.1 20.2156 148.569 22.3594C148.503 22.6219 148.7 22.8812 148.972 22.8812V22.8781Z" fill="white"></path><path d="M24.9531 13.2437C23.1094 12.1312 22.3094 9.3375 23.1219 7.4375C23.7625 5.94063 26.0688 0.625 26.0688 0.625H18.0687L0.25 36.3031C0.25 36.3031 5.24688 32.9344 12.6219 36.1656C14.9281 37.1781 17.3562 38.1344 20.0906 37.9719C26.5281 37.5875 31.675 32.6187 32.2594 26.1906C32.7781 20.5187 29.5625 16.0219 24.9563 13.2406L24.9531 13.2437ZM27.0719 25.775C26.7094 29.4375 23.7469 32.4 20.0844 32.7594C15.1344 33.25 11.0188 29.1312 11.5031 24.1781C11.8656 20.5156 14.8281 17.5531 18.4906 17.1906C23.4438 16.7031 27.5625 20.8219 27.0719 25.775Z" fill="white"></path><path d="M22.9875 25.3533C22.8156 27.0939 21.4063 28.5033 19.6656 28.672C17.3125 28.9064 15.3563 26.947 15.5875 24.5939C15.7594 22.8533 17.1688 21.4439 18.9094 21.272C21.2625 21.0408 23.2219 22.997 22.9875 25.3533Z" fill="#FF6D00"></path>
</svg>
